<svg width="545" height="600" viewBox="0 0 545 600" fill="none" xmlns="http://www.w3.org/2000/svg">
<path fill-rule="evenodd" clip-rule="evenodd" d="M334.574 556.299C327.908 560.088 319.633 555.273 319.633 547.605V320.601C319.633 317.004 321.565 313.684 324.692 311.907L493.205 216.137C499.871 212.348 508.146 217.163 508.146 224.831V383.503C508.146 385.281 508.62 387.027 509.52 388.561L536.595 434.733C538.427 437.856 538.427 441.727 536.595 444.85L513.136 484.848C510.369 489.565 504.325 491.185 499.57 488.483L481.662 478.308C478.598 476.567 474.844 476.568 471.78 478.309L334.574 556.299ZM371 359.319C371 355.722 372.932 352.402 376.059 350.625L450.315 308.419C456.982 304.63 465.257 309.445 465.257 317.113V401.254C465.257 404.851 463.325 408.171 460.198 409.948L385.941 452.153C379.275 455.942 371 451.128 371 443.46V359.319Z" fill="#175054"/>
<path d="M266.178 207.763C260.162 211.084 252.863 211.084 246.848 207.764L99.7209 126.558C85.9409 118.952 85.9402 99.1456 99.7196 91.5387L124.575 77.8173C128.621 75.5839 133.315 74.8204 137.86 75.6567L258.857 97.9199C270.011 99.9721 275.428 84.81 265.499 79.33L225.396 57.1955C211.615 49.5895 211.615 29.7822 225.396 22.1758L246.848 10.3346C252.864 7.01429 260.162 7.01424 266.178 10.3344L413.299 91.5377C427.08 99.1442 427.079 118.953 413.297 126.558L387.738 140.663C384.125 142.656 379.983 143.484 375.881 143.031L274.835 131.879C263.968 130.679 259.334 145.29 268.906 150.573L287.624 160.905C301.404 168.51 301.404 188.317 287.625 195.924L266.178 207.763Z" fill="#175054"/>
<path d="M220.208 297.148C223.397 298.907 225.376 302.261 225.376 305.903V571.559C225.376 575.201 227.356 578.555 230.544 580.314L251.96 592.134C254.968 593.794 258.617 593.794 261.624 592.134L283.04 580.314C286.228 578.555 288.208 575.201 288.208 571.559V305.903C288.208 302.261 290.188 298.907 293.376 297.148L502.978 181.464C506.166 179.704 508.146 176.351 508.146 172.709V149.829C508.146 146.187 506.166 142.833 502.977 141.074L481.553 129.253C478.545 127.594 474.897 127.594 471.89 129.254L261.624 245.308C258.617 246.968 254.968 246.968 251.96 245.308L41.6863 129.254C38.6788 127.594 35.0298 127.594 32.0222 129.254L10.6065 141.073C7.41815 142.833 5.43848 146.187 5.43848 149.828V172.709C5.43848 176.351 7.41812 179.704 10.6064 181.464L220.208 297.148Z" fill="#175054"/>
<path d="M5.43848 317.339V230.239C5.43848 222.626 13.6056 217.805 20.2704 221.484L188.783 314.486C191.972 316.246 193.951 319.6 193.951 323.242V369.768C193.951 377.381 185.784 382.202 179.119 378.523L83.1118 325.526C76.447 321.847 68.2792 326.668 68.2792 334.281V346.122C68.2792 349.764 70.2588 353.117 73.447 354.877L188.784 418.536C191.972 420.295 193.951 423.649 193.951 427.291V543.182C193.951 550.795 185.784 555.616 179.119 551.937L10.6062 458.926C7.41803 457.167 5.43848 453.813 5.43848 450.171V403.652C5.43848 396.04 13.6059 391.219 20.2707 394.897L116.279 447.888C122.943 451.566 131.111 446.745 131.111 439.133V427.291C131.111 423.649 129.131 420.295 125.943 418.536L10.6063 354.877C7.41805 353.117 5.43848 349.764 5.43848 346.122V317.339Z" fill="#175054"/>
</svg>
